<svg width="53" height="52" fill="none" xmlns="http://www.w3.org/2000/svg"><g clip-path="url(#clip0_1_18)"><path d="M26 2c13.255 0 24 10.745 24 24S39.255 50 26 50 2 39.255 2 26 12.745 2 26 2z" fill="#000" fill-opacity=".01" stroke="#fff" stroke-width="2"/><g clip-path="url(#clip1_1_18)"><path d="M30.664 17.151h2.282v-3.975c-.394-.054-1.748-.176-3.325-.176-3.29 0-5.545 2.07-5.545 5.874v3.501h-3.631v4.444h3.631V38h4.452V26.82h3.485l.553-4.444h-4.039v-3.061c.001-1.285.347-2.164 2.137-2.164z" fill="#fff"/></g></g><defs><clipPath id="clip0_1_18"><path fill="#fff" d="M0 0h53v52H0z"/></clipPath><clipPath id="clip1_1_18"><path fill="#fff" transform="translate(14 13)" d="M0 0h25v25H0z"/></clipPath></defs></svg>