<svg width="52" height="52" fill="none" xmlns="http://www.w3.org/2000/svg"><g clip-path="url(#clip0_1_12)"><path d="M26 2c13.255 0 24 10.745 24 24S39.255 50 26 50 2 39.255 2 26 12.745 2 26 2z" fill="#000" fill-opacity=".01" stroke="#fff" stroke-width="2"/><g clip-path="url(#clip1_1_12)" fill="#fff"><path d="M37.977 21.056c-.057-1.275-.263-2.152-.558-2.912a5.857 5.857 0 00-1.388-2.128 5.906 5.906 0 00-2.124-1.383c-.764-.295-1.636-.502-2.911-.558-1.285-.06-1.693-.075-4.951-.075-3.259 0-3.667.014-4.947.07-1.275.057-2.152.263-2.911.558a5.856 5.856 0 00-2.129 1.388 5.91 5.91 0 00-1.383 2.124c-.295.764-.502 1.636-.558 2.911-.06 1.285-.075 1.693-.075 4.951 0 3.259.014 3.667.07 4.947.057 1.275.263 2.151.559 2.911a5.92 5.92 0 001.387 2.129 5.9 5.9 0 002.124 1.383c.764.295 1.636.501 2.912.558 1.28.056 1.688.07 4.946.07s3.666-.014 4.946-.07c1.275-.057 2.152-.263 2.912-.558a6.139 6.139 0 003.511-3.512c.296-.764.502-1.636.558-2.911.056-1.28.07-1.688.07-4.947 0-3.258-.004-3.666-.06-4.946zm-2.162 9.799c-.051 1.172-.248 1.805-.412 2.227a3.981 3.981 0 01-2.279 2.279c-.422.164-1.06.36-2.227.412-1.266.056-1.645.07-4.848.07-3.202 0-3.586-.014-4.848-.07-1.172-.052-1.805-.248-2.227-.413a3.693 3.693 0 01-1.378-.895 3.73 3.73 0 01-.896-1.378c-.164-.422-.36-1.06-.412-2.227-.056-1.266-.07-1.646-.07-4.848 0-3.203.014-3.587.07-4.848.052-1.172.248-1.805.412-2.227a3.68 3.68 0 01.9-1.379 3.725 3.725 0 011.38-.895c.421-.164 1.059-.36 2.226-.413 1.266-.056 1.646-.07 4.848-.07 3.207 0 3.587.014 4.848.07 1.172.052 1.805.249 2.227.413.52.192.994.497 1.378.895.399.39.703.858.896 1.379.164.422.36 1.06.412 2.227.056 1.266.07 1.645.07 4.848 0 3.202-.014 3.577-.07 4.843z"/><path d="M26.044 19.837a6.167 6.167 0 00-6.165 6.165 6.167 6.167 0 006.165 6.166 6.167 6.167 0 006.166-6.166 6.167 6.167 0 00-6.166-6.165zm0 10.165a4 4 0 11.002-8 4 4 0 01-.002 8zm7.849-10.409a1.44 1.44 0 11-2.879 0 1.44 1.44 0 012.879 0z"/></g></g><defs><clipPath id="clip0_1_12"><path fill="#fff" d="M0 0h52v52H0z"/></clipPath><clipPath id="clip1_1_12"><path fill="#fff" transform="translate(14 14)" d="M0 0h24v24H0z"/></clipPath></defs></svg>